<svg width="46" height="46" viewBox="0 0 46 46" fill="none" xmlns="http://www.w3.org/2000/svg">
<g clip-path="url(#clip0_54_1024)">
<path fill-rule="evenodd" clip-rule="evenodd" d="M22.9315 0.469391C10.251 0.469391 0 10.7959 0 23.5712C0 33.7832 6.56814 42.4275 15.6799 45.487C16.8191 45.717 17.2364 44.9899 17.2364 44.3783C17.2364 43.8427 17.1988 42.0069 17.1988 40.0942C10.8199 41.4714 9.49149 37.3403 9.49149 37.3403C8.46635 34.6629 6.94741 33.9748 6.94741 33.9748C4.85957 32.5596 7.09949 32.5596 7.09949 32.5596C9.41545 32.7126 10.6307 34.9309 10.6307 34.9309C12.6805 38.4494 15.9836 37.4553 17.3124 36.8432C17.5021 35.3515 18.1099 34.3188 18.7553 33.7452C13.6676 33.2097 8.31473 31.2209 8.31473 22.3471C8.31473 19.8227 9.22535 17.7574 10.6682 16.1512C10.4406 15.5776 9.6431 13.2058 10.8964 10.0313C10.8964 10.0313 12.8326 9.41921 17.1984 12.4026C19.0675 11.8969 20.9951 11.6397 22.9315 11.6375C24.8677 11.6375 26.8415 11.9056 28.6641 12.4026C33.0303 9.41921 34.9666 10.0313 34.9666 10.0313C36.2198 13.2058 35.4219 15.5776 35.1942 16.1512C36.6751 17.7574 37.5482 19.8227 37.5482 22.3471C37.5482 31.2209 32.1953 33.1712 27.0696 33.7452C27.9051 34.4718 28.6261 35.8486 28.6261 38.0289C28.6261 41.1268 28.5885 43.6132 28.5885 44.3778C28.5885 44.9899 29.0063 45.717 30.145 45.4874C39.2568 42.427 45.8249 33.7832 45.8249 23.5712C45.8625 10.7959 35.574 0.469391 22.9315 0.469391Z" fill="white"/>
</g>
<defs>
<clipPath id="clip0_54_1024">
<rect width="46" height="45.0612" fill="white" transform="translate(0 0.469391)"/>
</clipPath>
</defs>
</svg>
